Coordinates
version=1
nRows=14
nColumns=40
inDegrees=yes

Units are S.I. units (second, meters, Newtons, ...)
If the header above contains a line with 'inDegrees', this indicates whether rotational values are in degrees (yes) or radians (no).

endheader
time	pelvis_tilt	pelvis_list	pelvis_rotation	pelvis_tx	pelvis_ty	pelvis_tz	hip_flexion_r	hip_adduction_r	hip_rotation_r	knee_angle_r	knee_angle_r_beta	ankle_angle_r	subtalar_angle_r	mtp_angle_r	hip_flexion_l	hip_adduction_l	hip_rotation_l	knee_angle_l	knee_angle_l_beta	ankle_angle_l	subtalar_angle_l	mtp_angle_l	lumbar_extension	lumbar_bending	lumbar_rotation	arm_flex_r	arm_add_r	arm_rot_r	elbow_flex_r	pro_sup_r	wrist_flex_r	wrist_dev_r	arm_flex_l	arm_add_l	arm_rot_l	elbow_flex_l	pro_sup_l	wrist_flex_l	wrist_dev_l
      4.14500000	    -29.62186463	    -11.62778032	      4.95302914	     -3.54727126	      0.98543574	      0.34785420	     76.30742999	      2.13209851	    -15.32501485	     64.44002275	      1.12469057	     13.09828783	      0.00000000	      0.00000000	     -2.20559263	    -12.68815274	      0.60892732	     16.86668004	      0.29437910	    -27.84911719	      0.00000000	      0.00000000	     -0.91303262	     18.20893396	     -1.82919742	    -55.80961987	     -8.46610722	    -50.89984267	     83.92388417	     88.25115762	      0.00000000	      0.00000000	     56.47679935	     -1.79633828	     53.23840263	     84.98567722	     87.66195249	      0.00000000	      0.00000000
      4.15000000	    -29.60770509	    -11.67239927	      4.63478136	     -3.51799288	      0.98696085	      0.34635963	     75.66041548	      2.40392593	    -15.92386714	     60.24340969	      1.05144585	     13.02825797	      0.00000000	      0.00000000	     -2.74996093	    -12.67587467	      0.29492012	     17.67337785	      0.30845863	    -30.27725436	      0.00000000	      0.00000000	     -0.77390509	     18.54475723	     -1.80913128	    -55.55781750	     -8.54721275	    -50.71708159	     84.58389332	     88.22938791	      0.00000000	      0.00000000	     55.83482218	     -2.02449626	     54.39960815	     83.97064331	     87.81579678	      0.00000000	      0.00000000
      4.15500000	    -29.46213362	    -11.15714811	      4.43188388	     -3.48900819	      0.98850840	      0.34470013	     74.79661065	      2.43667997	    -15.92730792	     56.31257516	      0.98283985	     13.10263518	      0.00000000	      0.00000000	     -3.27136566	    -11.98180204	      0.53433776	     18.83397403	      0.32871486	    -31.52837108	      0.00000000	      0.00000000	     -0.84596589	     18.26525875	     -1.86611734	    -55.02103282	     -8.52205242	    -50.39135686	     85.23955225	     88.16062866	      0.00000000	      0.00000000	     55.16238655	     -2.35655277	     55.48814212	     82.90809963	     87.75021442	      0.00000000	      0.00000000
      4.16000000	    -28.91878301	    -11.49946946	      3.90612675	     -3.45908198	      0.99070297	      0.34390226	     73.25395090	      3.25465456	    -16.90999903	     52.13576910	      0.90994083	     12.97787949	      0.00000000	      0.00000000	     -4.02620462	    -12.40069318	     -0.90182625	     20.39451825	      0.35595149	    -33.24257383	      0.00000000	      0.00000000	     -1.41496811	     18.92540346	     -1.41841287	    -54.29211319	     -8.62607111	    -50.10102532	     85.59312409	     88.24350164	      0.00000000	      0.00000000	     54.39922003	     -2.54062865	     56.48158278	     81.67800841	     87.83691397	      0.00000000	      0.00000000
      4.16500000	    -28.56780289	    -11.21844382	      3.60594430	     -3.42979007	      0.99245305	      0.34282152	     71.90301961	      3.57585971	    -17.30062431	     48.41458892	      0.84499398	     12.83918641	      0.00000000	      0.00000000	     -4.31156667	    -12.06890702	     -1.55611355	     22.36916287	      0.39041554	    -34.05655947	      0.00000000	      0.00000000	     -1.76395417	     18.85791789	     -1.27831710	    -53.28781924	     -8.61382109	    -49.61464659	     85.88928482	     88.25907334	      0.00000000	      0.00000000	     53.54315756	     -2.87813332	     57.39586113	     80.44232087	     87.84712576	      0.00000000	      0.00000000
      4.17000000	    -28.17754717	    -10.89852282	      3.30634749	     -3.40051377	      0.99415456	      0.34184852	     70.43821430	      3.89622768	    -17.69922821	     44.97058866	      0.78488484	     12.64299520	      0.00000000	      0.00000000	     -4.44197435	    -11.71452920	     -2.25199807	     24.68040727	      0.43075437	    -34.46566977	      0.00000000	      0.00000000	     -2.17017247	     18.73644044	     -1.13685961	    -52.06715405	     -8.59333883	    -49.03961800	     86.06609422	     88.26722171	      0.00000000	      0.00000000	     52.56070360	     -3.25996039	     58.13259054	     79.15645127	     87.85153247	      0.00000000	      0.00000000
      4.17500000	    -27.77201312	    -10.06442075	      3.11724505	     -3.37141850	      0.99576165	      0.34049487	     68.96910385	      3.79762177	    -17.76684197	     42.13082648	      0.73532164	     12.53373887	      0.00000000	      0.00000000	     -4.47222785	    -10.72039917	     -2.41263774	     27.01526802	      0.47150538	    -34.92627141	      0.00000000	      0.00000000	     -2.59589626	     18.04793736	     -1.13836656	    -50.57878987	     -8.51504481	    -48.32030527	     86.09238731	     88.21811202	      0.00000000	      0.00000000	     51.43214823	     -3.68706715	     58.62539646	     77.80101661	     87.76032915	      0.00000000	      0.00000000
      4.18000000	    -27.29554283	    -10.00739199	      2.72356923	     -3.34217314	      0.99726991	      0.34014661	     67.29641052	      4.37264697	    -18.41987292	     39.26029101	      0.68522134	     12.06170169	      0.00000000	      0.00000000	     -4.27726371	    -10.81551585	     -3.66651929	     30.10311784	      0.52539852	    -34.54778635	      0.00000000	      0.00000000	     -3.14257229	     18.16176774	     -0.86113878	    -49.00401484	     -8.49735199	    -47.54330821	     86.06691644	     88.28032183	      0.00000000	      0.00000000	     50.29272288	     -4.18706237	     59.15823364	     76.57559949	     87.85322611	      0.00000000	      0.00000000
      4.18500000	    -26.74655796	     -9.62056882	      2.40582764	     -3.31297134	      0.99875805	      0.33936087	     65.57309938	      4.61974933	    -18.94424863	     37.05084179	      0.64665918	     11.74223524	      0.00000000	      0.00000000	     -4.08935183	    -10.47791025	     -4.40843424	     33.11210505	      0.57791526	    -34.33423746	      0.00000000	      0.00000000	     -3.77300497	     17.93689517	     -0.65265395	    -47.23121977	     -8.44229286	    -46.68037571	     85.93118745	     88.28740987	      0.00000000	      0.00000000	     48.96908148	     -4.66009710	     59.31314563	     75.21551377	     87.86321193	      0.00000000	      0.00000000
      4.19000000	    -26.15284455	     -9.26283172	      2.07441662	     -3.28381008	      1.00011252	      0.33861171	     63.79743587	      4.86786965	    -19.48836239	     35.30787995	      0.61623876	     11.40037607	      0.00000000	      0.00000000	     -3.81072026	    -10.21556503	     -5.16011812	     36.29767673	      0.63351397	    -33.97203886	      0.00000000	      0.00000000	     -4.45889054	     17.72924995	     -0.42741830	    -45.31241170	     -8.39212024	    -45.73339475	     85.73813682	     88.30170959	      0.00000000	      0.00000000	     47.54554839	     -5.14582541	     59.25809103	     73.82657191	     87.89053543	      0.00000000	      0.00000000
      4.19500000	    -25.53235564	     -8.67534841	      1.68694401	     -3.25481522	      1.00129141	      0.33790207	     62.00712656	      4.99636650	    -19.72839199	     34.07313540	      0.59468840	     11.10779609	      0.00000000	      0.00000000	     -3.48824590	     -9.66952325	     -5.70952995	     39.49152292	      0.68925710	    -33.58281417	      0.00000000	      0.00000000	     -5.20950925	     17.25138815	     -0.16221725	    -43.24111169	     -8.33173620	    -44.63250722	     85.43269450	     88.30076325	      0.00000000	      0.00000000	     46.05617734	     -5.73295499	     59.06509399	     72.54060875	     87.86892676	      0.00000000	      0.00000000
      4.20000000	    -24.90628868	     -8.32651530	      1.25002005	     -3.22577324	      1.00227047	      0.33724549	     60.17648897	      5.27047146	    -20.08961165	     33.18217383	      0.57913819	     10.78823760	      0.00000000	      0.00000000	     -3.05571161	     -9.43608593	     -6.33712458	     42.84572020	      0.74779889	    -32.93008634	      0.00000000	      0.00000000	     -5.96590953	     17.03860865	      0.20026955	    -41.12692948	     -8.28336476	    -43.50376479	     85.12406391	     88.31424514	      0.00000000	      0.00000000	     44.40324994	     -6.24792911	     58.54288895	     71.18111573	     87.89987091	      0.00000000	      0.00000000
      4.20500000	    -24.23927831	     -7.68359641	      0.76475123	     -3.19685724	      1.00292324	      0.33632244	     58.37717289	      5.27150237	    -20.27021360	     32.95927388	      0.57524785	     10.68982108	      0.00000000	      0.00000000	     -2.59320774	     -8.83055824	     -6.81963636	     46.10737265	      0.80472546	    -32.84844516	      0.00000000	      0.00000000	     -6.77522359	     16.50154100	      0.75606840	    -39.03870038	     -8.12014932	    -42.40202843	     84.80327443	     88.23343394	      0.00000000	      0.00000000	     42.78672244	     -6.61600399	     57.97844727	     69.70260662	     87.71789682	      0.00000000	      0.00000000
      4.21000000	    -23.62341421	     -7.52972007	      0.24751593	     -3.16797557	      1.00350262	      0.33600521	     56.41816151	      5.77940939	    -20.22441996	     32.42460530	      0.56591612	     10.34898879	      0.00000000	      0.00000000	     -1.94943927	     -8.84193174	     -7.27910318	     49.66321215	      0.86678657	    -31.44522459	      0.00000000	      0.00000000	     -7.55846494	     16.45695679	      1.15766976	    -36.76026590	     -8.22723695	    -40.90365429	     84.38295191	     88.33472036	      0.00000000	      0.00000000	     40.89710401	     -7.29548287	     56.98395933	     68.60342199	     87.88942984	      0.00000000	      0.00000000
